<?xml version="1.0" encoding="UTF-8" standalone="no"?>
<svg
   xmlns="http://www.w3.org/2000/svg"
   id="svg1472"
   version="1.1"
   viewBox="0 0 135.46667 135.46666"
   height="512"
   width="512">
  <g
     transform="translate(0,-161.53334)"
     id="layer1">
    <path
       d="m 90.700334,195.97742 1.072889,14.04937 30.331927,-10.22242 -31.404816,-3.82695"
       style="fill:#f25c19;fill-opacity:1;fill-rule:evenodd;stroke:none;stroke-width:0.34948638"
       id="path76" />
    <path
       d="M 70.545444,224.38716 91.773223,210.02679 90.700334,195.97742 Z"
       style="fill:#ededed;fill-opacity:1;fill-rule:evenodd;stroke:none;stroke-width:0.34948638"
       id="path78" />
    <path
       d="m 80.317119,180.27499 10.383215,15.70243 -26.805556,37.78653 -24.59338,-46.78231 41.015721,-6.70665"
       style="fill:#d7d7d7;fill-opacity:1;fill-rule:evenodd;stroke:none;stroke-width:0.34948638"
       id="path80" />
    <path
       d="M 71.897997,248.99103 39.301398,186.98164 8.5920152,264.30204 Z"
       style="fill:#b2b1b1;fill-opacity:1;fill-rule:evenodd;stroke:none;stroke-width:0.34948638"
       id="path82" />
    <path
       d="M 8.5920152,264.30204 63.940151,327.68134 34.642772,448.4988 45.074922,447.92222 95.617618,374.17011 71.897997,248.99114 8.5920152,264.30213"
       style="fill:#ededed;fill-opacity:1;fill-rule:evenodd;stroke:none;stroke-width:0.34948638"
       id="path84" />
    <path
       d="m 8.5920152,264.30204 -3.138344,15.40531 -26.7427382,119.70266 2.788934,-1.98165 -9.803076,48.15925 62.945981,2.90772 29.297379,-120.81399 -55.3481358,-63.3793"
       style="fill:#292424;fill-opacity:1;fill-rule:evenodd;stroke:none;stroke-width:0.34948638"
       id="path86" />
    <path
       d="m 86.062706,423.82854 -9.453672,-21.92323 -16.778776,24.48847 v 0 l -12.490664,18.22227 36.594649,-1.55871 -10.561427,-17.98809 12.68989,-1.24071"
       style="fill:#868484;fill-opacity:1;fill-rule:evenodd;stroke:none;stroke-width:0.34948638"
       id="path88" />
    <path
       d="M 63.940151,327.68134 25.769242,283.9711 -29.016193,418.36607 Z"
       style="fill:#868484;fill-opacity:1;fill-rule:evenodd;stroke:none;stroke-width:0.34948638"
       id="path90" />
    <path
       d="m 5.4536712,279.70735 -40.6243032,129.57557 13.881565,-9.87291 z"
       style="fill:#403c3c;fill-opacity:1;fill-rule:evenodd;stroke:none;stroke-width:0.34948638"
       id="path136" />
  </g>
</svg>
